<svg width="20" height="20" viewBox="0 -1 18 18" fill="none" xmlns="http://www.w3.org/2000/svg">
<g clip-path="url(#clip0)">
<path d="M2.7137 6.52148H2.66247C2.00571 6.52148 1.47021 7.05868 1.47021 7.71374V12.9046C1.47021 13.5622 2.00571 14.0977 2.66247 14.0977H2.71457C3.37134 14.0977 3.90683 13.5605 3.90683 12.9046V7.7137C3.90596 7.05868 3.36963 6.52148 2.7137 6.52148Z" fill="#3C3841"/>
<path d="M4.47729 14.9082C4.47729 15.5111 4.97006 16.0022 5.57302 16.0022H6.74393V18.806C6.74393 19.4645 7.28113 20 7.93619 20H7.98742C8.64505 20 9.18138 19.4637 9.18138 18.806V16.0022H10.8177V18.806C10.8177 19.4645 11.3566 20 12.0117 20H12.0621C12.7197 20 13.2552 19.4637 13.2552 18.806V16.0022H14.4269C15.029 16.0022 15.5218 15.5111 15.5218 14.9082V6.71191H4.47729V14.9082Z" fill="#3C3841"/>
<path d="M12.7504 1.74139L13.6805 0.305763C13.7403 0.215215 13.7138 0.0914091 13.6224 0.0324557C13.5319 -0.0273291 13.408 -0.00254417 13.3491 0.090538L12.3849 1.57574C11.6615 1.27938 10.8536 1.11286 10.0004 1.11286C9.14633 1.11286 8.34011 1.27938 7.61505 1.57574L6.65255 0.090538C6.59364 -0.00254417 6.46892 -0.0273291 6.37754 0.0324557C6.28616 0.0913695 6.25968 0.215215 6.31946 0.305763L7.25036 1.74139C5.57215 2.56385 4.44055 4.11394 4.44055 5.89204C4.44055 6.00136 4.4474 6.10897 4.45678 6.21571H15.5448C15.5542 6.10897 15.5602 6.00136 15.5602 5.89204C15.5602 4.11394 14.4278 2.56385 12.7504 1.74139ZM7.42972 4.31206C7.13507 4.31206 6.89593 4.07462 6.89593 3.77914C6.89593 3.48366 7.13507 3.24706 7.42972 3.24706C7.72607 3.24706 7.9635 3.48362 7.9635 3.77914C7.9635 4.07466 7.72436 4.31206 7.42972 4.31206ZM12.5702 4.31206C12.2756 4.31206 12.0364 4.07462 12.0364 3.77914C12.0364 3.48366 12.2756 3.24706 12.5702 3.24706C12.8657 3.24706 13.1031 3.48362 13.1031 3.77914C13.1031 4.07462 12.8657 4.31206 12.5702 4.31206Z" fill="#3C3841"/>
<path d="M17.3366 6.52148H17.2871C16.6303 6.52148 16.0931 7.05868 16.0931 7.71374V12.9046C16.0931 13.5622 16.6312 14.0977 17.2871 14.0977H17.3375C17.9951 14.0977 18.5297 13.5605 18.5297 12.9046V7.7137C18.5297 7.05868 17.9934 6.52148 17.3366 6.52148Z" fill="#3C3841"/>
</g>
<defs>
<clipPath id="clip0">
<rect width="20" height="20" fill="white"/>
</clipPath>
</defs>
</svg>
