<svg width="20" height="20" viewBox="0 0 20 20" fill="none" xmlns="http://www.w3.org/2000/svg">
<path d="M7.23652 20.0002C4.25992 19.983 1.79773 13.9068 1.79773 10.8123C1.79773 5.75744 5.58972 4.6508 7.05113 4.6508C7.70972 4.6508 8.41296 4.90943 9.03324 5.1383C9.46699 5.29795 9.91558 5.46275 10.1651 5.46275C10.3144 5.46275 10.6663 5.32256 10.977 5.19955C11.6396 4.93576 12.4642 4.60791 13.4243 4.60791C13.426 4.60791 13.4284 4.60791 13.43 4.60791C14.147 4.60791 16.3208 4.76525 17.6277 6.72791L17.9339 7.18795L17.4933 7.52041C16.8639 7.99533 15.7154 8.86166 15.7154 10.5777C15.7154 12.6102 17.016 13.3918 17.6409 13.7678C17.9167 13.9337 18.2022 14.1048 18.2022 14.479C18.2022 14.7233 16.2521 19.9699 13.4203 19.9699C12.7274 19.9699 12.2376 19.7616 11.8055 19.5779C11.3684 19.3919 10.9913 19.2317 10.3682 19.2317C10.0523 19.2317 9.65289 19.3811 9.23003 19.5396C8.65218 19.7552 7.99812 20.0002 7.25597 20.0002H7.23652Z" fill="#3C3841"/>
<path d="M13.7243 0C13.7981 2.65922 11.8963 4.50406 9.99681 4.38836C9.6838 2.26621 11.8961 0 13.7243 0Z" fill="#3C3841"/>
</svg>
